<?xml version="1.0" encoding="UTF-8"?>
<svg id="Layer_2" data-name="Layer 2" xmlns="http://www.w3.org/2000/svg" xmlns:xlink="http://www.w3.org/1999/xlink" viewBox="0 0 1324.51 798.47">
  <defs>
    <style>
      .cls-1 {
        fill: url(#Nova_amostra_de_gradiente);
      }

      .cls-2 {
        fill: url(#linear-gradient);
      }

      .cls-3 {
        fill: url(#Nova_amostra_de_gradie_copiar_2);
      }

      .cls-4 {
        fill: url(#Nova_amostra_de_gradie_copiar-3);
      }

      .cls-5 {
        fill: url(#Nova_amostra_de_gradie_copiar-2);
      }

      .cls-6 {
        fill: url(#Nova_amostra_de_gradiente-3);
      }

      .cls-7 {
        fill: url(#Nova_amostra_de_gradiente-2);
      }

      .cls-8 {
        fill: url(#Nova_amostra_de_gradie_copiar);
      }
    </style>
    <linearGradient id="Nova_amostra_de_gradie_copiar_2" data-name="Nova amostra de gradie copiar 2" x1="662.22" y1="707.98" x2="662.22" y2="14.99" gradientUnits="userSpaceOnUse">
      <stop offset="0" stop-color="#ffd286"/>
      <stop offset=".2" stop-color="#fbbfaa"/>
      <stop offset=".47" stop-color="#22a0bf"/>
      <stop offset="1" stop-color="#03293c"/>
    </linearGradient>
    <linearGradient id="Nova_amostra_de_gradiente" data-name="Nova amostra de gradiente" x1="1120.55" y1="525.63" x2="1120.55" y2="337.76" gradientUnits="userSpaceOnUse">
      <stop offset=".02" stop-color="#22a0bf"/>
      <stop offset="1" stop-color="#03293c"/>
    </linearGradient>
    <linearGradient id="Nova_amostra_de_gradiente-2" data-name="Nova amostra de gradiente" x1="505.83" y1="562.29" x2="505.83" y2="412.83" xlink:href="#Nova_amostra_de_gradiente"/>
    <linearGradient id="Nova_amostra_de_gradiente-3" data-name="Nova amostra de gradiente" x1="93.25" y1="603.03" x2="93.25" y2="476.48" xlink:href="#Nova_amostra_de_gradiente"/>
    <linearGradient id="Nova_amostra_de_gradie_copiar" data-name="Nova amostra de gradie copiar" x1="662.3" y1="664.03" x2="662.3" y2="353.5" gradientUnits="userSpaceOnUse">
      <stop offset="0" stop-color="#1a6d8c"/>
      <stop offset=".54" stop-color="#03293c"/>
      <stop offset="1" stop-color="#08080d"/>
    </linearGradient>
    <linearGradient id="Nova_amostra_de_gradie_copiar-2" data-name="Nova amostra de gradie copiar" y1="832.14" y2="398.54" xlink:href="#Nova_amostra_de_gradie_copiar"/>
    <linearGradient id="Nova_amostra_de_gradie_copiar-3" data-name="Nova amostra de gradie copiar" y1="964.15" y2="653.17" xlink:href="#Nova_amostra_de_gradie_copiar"/>
    <linearGradient id="linear-gradient" x1="662.3" y1="924.67" x2="662.3" y2="758.7" gradientUnits="userSpaceOnUse">
      <stop offset="0" stop-color="#1a6d8c"/>
      <stop offset=".49" stop-color="#03293c"/>
      <stop offset=".83" stop-color="#08080d"/>
      <stop offset=".96" stop-color="#000"/>
    </linearGradient>
  </defs>
  <g id="OBJECTS">
    <g>
      <rect class="cls-3" width="1324.43" height="575.36"/>
      <g>
        <path class="cls-1" d="M964.09,469.39s11.05-2.38,12.93-2.38,9.55,2.38,9.55,2.38l6.37-.68s5.62-.91,6.18-1.13c.56-.23,4.12-3.28,4.12-3.28l2.25-3.85,5.06-2.26,8.81,3.85s8.43.34,9.18.34,7.87.34,9.37.57c1.5.23,8.05,2.04,8.62,2.04s13.11-8.26,13.11-8.26c0,0,12.36-7.35,13.11-7.69.75-.34,17.23-2.27,17.98-2.83.75-.56,8.81-7.01,9.37-7.35.56-.34,7.3-3.39,8.62-3.85,1.31-.45,5.62-2.15,5.62-2.49s1.12-4.41,1.12-4.41c0,0,7.31-1.36,8.24-1.47s5.06.45,6.75,0c1.68-.45,5.81-1.02,6.56-1.13.75-.11,5.06,3.05,5.06,3.05l11.24,1.92s9.37,3.28,10.3,3.51c.94.23,8.81,4.19,9.55,4.19s3.37.11,8.8-.68c5.43-.79,10.87-.68,12.74-.45,1.87.23,7.87,1.13,10.49,1.47,2.62.34,17.23,5.2,17.23,5.2,0,0,8.62-3.51,9.37-3.96.75-.45,17.98-.91,18.73-1.13.75-.23,1.31-3.96,1.68-4.3.38-.34,5.99-3.17,7.87-4.87,1.87-1.7,10.31-3.06,11.05-3.51.75-.45,6.37-2.6,6.74-3.17.38-.57,26.04.79,27.35,1.47,1.31.68,9.74,6.45,10.3,6.45s8.43-1.13,8.43-1.13l.56-.06v53.66s-12.79,11.21-19.31,13.45c-1.07.37-1.93.48-2.48.25l-29.54,9.09s-48.89,7.13-51.14,8.15c-2.25,1.02-57.32,5.77-61.26,6.11-3.93.34-65.75-6.11-71.94-6.11s-53.39-3.73-58.45-3.73-109.03-14.6-109.03-14.6c0,0-6.18-19.01-4.5-19.35,1.68-.34,47.21-7.02,47.21-7.02Z"/>
        <path class="cls-7" d="M.08,536.6v-50.38s15.89,1.88,18.26,2.41c2.37.54,11.85.36,11.85.36l7.7,1.25,9.78,10.38s13.63,6.09,14.82,6.09,36.74,1.97,39.11,1.43c2.37-.54,17.48,1.97,17.48,1.97l2.07-5.37,6.82.9s8.59-.18,10.07.36c1.48.54,8.89,3.58,8.89,3.58l3.56,3.04,11.26,1.47,3.85-3.62,11.55-2.5s21.33-8.23,23.11-8.77c1.78-.54,14.81-1.97,14.81-1.97l11.56-.89,8.59-3.22,26.67-17.54,13.93-10.74,13.04-12.17,4.15-10.02s13.34,2.15,15.71,2.5c2.37.36,9.78,1.43,11.85,2.33,2.07.89,10.67,4.47,10.67,4.47l10.37.89,31.7-.18,10.37-5.55s5.63-3.76,7.41-4.47,10.67.36,13.04,0c2.37-.36,13.33-.25,13.33-.25l10.96,2.58s8.59,5.19,11.26,7.34c2.67,2.15,8,3.94,8.89,4.12.89.18,13.04,2.86,14.52,3.4,1.48.54,31.41,11.28,32.3,11.63.89.36,6.52,3.76,8.3,6.8,1.78,3.04,5.33,6.08,7.11,6.26,1.78.18,18.67,2.86,20.45,2.86s12.74,1.34,13.93,1.75c1.19.4,5.34,4.16,7.71,5.77,2.37,1.61,10.67,4.65,13.04,5.37,2.37.72,9.36.81,11.56,1.43,2.2.62,9.19,3.76,10.67,4.65,1.26.76,4.64,1.77,6.91,2.4.41.11.78.21,1.09.29l24.28-.21s48.05,5.94,48.89,6.11c.84.17-3.09-15.62-3.09-15.62l11.8-2.72s6.18.17,7.87,0c1.69-.17,7.87-.34,8.99-.17,1.12.17,4.5,3.73,4.5,3.73l3.93,3.23s6.75-4.07,8.99-4.75c2.25-.68,14.89-4.24,14.89-4.24h8.99l19.11-4.58,9.84-2.88,5.06-4.58,4.5-4.24,5.9-2.55,6.74-4.41s6.46-.17,11.24-.34c4.78-.17,9.83-.17,10.4,1.53.56,1.7,3.37,3.56,3.37,3.56l7.02-1.72s5.62-2.02,5.62-2.52,5.06-3.06,5.06-3.06l8.99-4.07s15.74-15.79,16.58-15.96c.84-.17,9.83-4.75,10.68-5.26s12.08-5.43,12.08-5.43l4.21-5.77,6.75-6.96s4.78-1.7,5.9-1.87c1.12-.17,11.24-2.21,11.24-2.21l9.55,2.55s6.75,8.32,7.31,9.33c.56,1.02,16.3,14.43,17.14,14.43s12.08,11.88,13.21,13.92c1.13,2.04,14.89,7.3,14.89,7.3l10.12.85,15.31,13.43,9.14,7.78s8.15,11.2,8.43,12.39c.28,1.19-15.17,15.28-16.3,16.46-1.13,1.19-11.24,3.9-14.61,6.62-3.37,2.72-77.56,17.14-83.18,16.63-5.62-.51-54.79-.48-58.73.01-3.94.5-236.6,10.17-238.29,10.34-1.68.17-176.75-3.39-176.75-3.39l-352.09,5.6L.08,536.6Z"/>
        <path class="cls-6" d="M4.34,532l9.55-4.75s2.53-2.71,3.09-2.97c.56-.25,5.34-2.12,5.34-2.12,0,0,2.53,2.46,3.23,2.72.7.25,1.83,1.02,2.39,1.1.56.09,1.55,1.78,1.55,1.78,0,0,1.97-1.36,2.53-1.95.56-.59,1.83-1.87,3.23-2.46,1.41-.59,1.55-1.1,1.83-1.61.28-.51.84-2.63,1.69-3.56.84-.93,5.9-4.67,5.9-4.67l2.81-4.16,10.12-13.66,7.45-7.38s4.49-3.14,4.92-3.65c.42-.51,2.81-8.06,3.37-8.4.56-.34,9.69-5.09,9.69-5.09l2.25-2.38s4.36,5.09,5.06,5.6c.7.51,6.46,5.35,7.87,6.2,1.41.85,8.01,4.67,8.43,5.6.42.93,5.62,6.2,5.62,6.2,0,0,5.48,4.33,5.9,4.41.42.08,11.94,16.21,11.94,16.21,0,0,4.78,5.86,5.06,6.87.28,1.02,5.34,5.18,6.18,5.18s2.53,2.97,2.53,2.97c0,0,6.74.34,7.45.17.7-.17,3.79-.51,4.64-1.27.84-.76,2.81-1.87,4.21-1.95,1.41-.08,8.43.51,8.43.51,0,0,5.76,5.69,5.9,5.94.14.25,1.26,3.56,3.93,4.5,2.67.93,7.45,3.48,8.01,3.56v13.15s-3.51,5.09-6.32,5.94c-2.81.85-16.58,6.28-18.55,7.3-1.97,1.02-17.98,5.43-17.98,5.43,0,0-5.9.34-9.83,0-3.93-.34-41.02,2.55-41.02,2.55H.08v-41.61l4.26-.23Z"/>
        <path class="cls-8" d="M.08,541.97l3.93,1.76s7.31.68,8.43.68,9.74,1.58,12.74,2.38c3,.79,4.31,2.83,6.56,3.85,2.25,1.02,4.5,4.64,5.43,5.66.94,1.02,4.31,1.13,5.62,1.47,1.31.34,6,.91,7.87,2.15,1.87,1.24,4.12,2.94,8.24,4.75,4.12,1.81,11.24,3.28,13.86,4.07,2.62.79,4.12,1.81,4.87,2.49.75.68,6.18,2.04,6.18,2.04,0,0,1.87-.34,5.81-1.13,3.93-.79,5.62-1.47,7.49-1.47s3.37.11,4.31-.57c.94-.68,2.43-2.72,3.37-3.17.94-.45,4.87-1.92,5.43-2.38.56-.45,4.12-3.96,4.12-3.96,0,0,7.87.11,9.93.68,2.06.57,2.81,1.58,3.93,2.15,1.13.56,8.24.68,11.24.79,3,.11,6.93.23,8.05,0,1.12-.23.38-.23,3.19-2.38,2.81-2.15,6.37-4.53,8.99-7.13,2.62-2.6,3.93-5.32,8.43-7.58,4.5-2.27,9.93-6.45,13.11-7.47,3.18-1.02,4.87-2.94,7.31-4.07,2.43-1.13,6.75-5.21,8.24-6.45,1.5-1.25,5.62-7.47,8.24-7.92,2.62-.45,8.99-1.58,9.74-2.26.75-.68,2.62-3.85,3.18-3.85h8.81s11.99,6.34,16.3,8.03c4.31,1.7,10.3,5.32,14.8,6.9,4.5,1.58,10.31,4.3,10.31,4.3,0,0,5.8-5.77,6.74-6.22.93-.45,3.18-1.58,3.56-2.04.37-.45,1.5-.91,1.69-1.47.19-.56,2.25-2.15,2.25-2.15,0,0,4.31,2.83,5.24,3.96.94,1.13,3.75,2.6,4.5,4.53.75,1.92,3,1.36,3,1.36,0,0,7.49-.45,8.05-.57.56-.11,5.62-2.72,6.37-3.17.75-.45,9.55-4.04,10.87-4.56,1.31-.53,8.05-5.05,9.55-6.18,1.5-1.13,5.81-3.05,6.37-3.62.56-.57,10.86-7.47,11.8-7.47s5.81-3.51,5.81-3.51l9.93-6.68,4.12-1.47s8.06,5.77,11.24,7.7c3.18,1.92,3.56,3.28,8.62,5.2,5.06,1.92,18.36,11.88,18.36,11.88h6s5.24-2.15,6.18-2.49c.94-.34,5.06-2.15,5.06-2.15,0,0,4.31,1.81,5.81,2.49,1.5.68,6.75,2.71,8.06,2.83,1.31.11,2.62,2.19,4.87,3.47,2.25,1.28,5.62,3.89,6.37,4.11.75.23,36.72,4.3,36.72,4.3l71.19-11.88s6.75-5.21,7.31-5.43c.56-.23,15.92-12.79,15.92-12.79,0,0,5.24.34,6.37.56,1.12.23,4.5.11,4.5.11,0,0,17.61-11.32,20.23-13.35,2.62-2.04,9.55-4.53,10.87-5.2,1.31-.68,5.25-4.08,5.99-4.64.75-.57,2.62-4.19,3.56-4.19s9.93.91,9.93.91c0,0,8.06,6,9.74,7.13,1.69,1.13,6.63,4.19,8.28,4.3,1.65.11,5.02,2.72,5.58,2.72s7.49,11.2,7.49,11.2l10.86,9.05,3.37,3.73,1.87-3.85v-3.62l7.87.68s2.62,2.83,3.37,2.83,6.93,2.49,6.93,2.49l21.36,2.6,10.12.34,33.16-2.94s1.13-3.15,2.44-3.67c1.31-.52,7.68-.97,8.43-.74.75.23,12.36,2.6,12.36,2.6l2.06-.68,4.12-3.85,3.93-1.58,6.18-1.81,7.31-3.51,4.31-2.49s5.99-5.43,6.56-5.54c.56-.11,6.56-3.51,6.56-3.51,0,0,8.62,4.52,9.18,4.98.56.45,8.62,5.21,10.12,5.55,1.5.34,15.74,4.52,15.74,4.52l2.81,3.05,6.56,3.39s7.49,3.28,8.24,3.51,40.65,4.53,40.65,4.53l12.74-2.94s6.93-6.11,7.5-6.68c.56-.57,8.43-3.62,9.37-4.07.94-.45,3.37-1.02,3.37-1.02l7.68-5.43,17.8-9.62,7.49-5.77,8.62-2.83s15.55-9.28,15.92-9.62c.37-.34,3.75-5.09,3.75-5.09,0,0,9.93-2.38,10.68-2.49.75-.11,4.31-3.96,5.06-4.52.75-.57,4.5-3.51,4.5-3.51h6.93l3.18,4.98s8.24,2.15,8.8,2.38c.56.23,12.37,6.11,13.3,6.56.93.45,11.43,8.83,13.67,9.84,2.25,1.02,10.68,4.98,12.93,7.01,2.25,2.04,5.06,4.19,5.81,5.32.75,1.13,4.69,2.04,4.69,2.04,0,0,9.74.79,10.49.9.75.11,7.12,3.17,7.12,3.17,0,0,13.12,7.24,13.86,7.35.75.11,80.93,4.41,80.93,4.41l4.12-2.49,9.55-1.24,4.12-1.81s3.37-3.84,4.31-4.18c.94-.34,10.12-2.04,10.12-2.04,0,0,.38,1.92,1.5,2.04,1.12.11,3.74.45,4.31.45s4.31-1.58,5.25-2.15c.94-.57,17.05-11.77,17.05-11.77l8.62-1.24s8.43-6.45,10.68-8.15c2.25-1.7,12.36-3.51,12.74-4.19s3.75-6,4.69-6.34c.93-.34,2.62-1.45,2.62-1.45v81.23h-92.73l-83.93,159.55H.08v-162.55Z"/>
        <path class="cls-5" d="M1301.85,532.24c-5.62-2.72-7.49-5.2-11.24-7.24s-4.87-2.94-7.5-4.07c-2.62-1.13-9.37,3.85-12.74,4.3-3.37.45-4.87,1.13-6.37,1.58-1.5.45-6.37.23-6.37.23,0,0-13.86-8.83-16.48-12.45-2.62-3.62-1.87-4.53-4.5-6.56-2.62-2.04-13.87-7.47-18.73-10.64-4.87-3.17-7.12-4.98-11.61-8.37-4.5-3.39-4.5-3.85-7.87-5.66-3.37-1.81-2.62-.45-5.99-2.26-3.37-1.81-16.49-4.98-20.61-5.88-4.12-.91-4.87-.91-10.12,2.04-5.24,2.94-10.49,6.56-14.24,9.96-3.75,3.39-5.62,5.66-10.12,8.6-4.5,2.94-4.12,3.39-7.87,5.43-3.75,2.04-9,11.32-19.48,15.16-10.49,3.85-24.35,14.94-32.22,19.01-7.87,4.07-7.12,2.49-11.61,6.56-4.5,4.07-10.86,7.47-14.24,8.6-3.37,1.13-5.62.68-6.37,0-.75-.68-1.5-4.07-5.25-4.3,0,0-7.49,5.2-14.24,9.28-6.74,4.07-9.37,3.62-13.11,6.56-3.75,2.94-10.49,5.66-10.49,5.66,0,0-16.86-9.28-19.86-12.67-3-3.39-5.24-6.79-8.99-8.15-3.75-1.36-6.37-2.26-12.36-4.3-5.99-2.04-12.36-9.73-17.23-14.26-4.87-4.53-5.24-7.24-11.99-11.99-6.75-4.75-17.99-12.45-19.48-13.13s-8.99-3.39-8.99-3.39c0,0-23.98,8.6-29.22,12.22-5.24,3.62-8.24,3.32-14.99,9.13-6.74,5.81-10.49,9.88-17.23,12.83-6.75,2.94-8.99,3.85-12.74,5.43-3.74,1.58-8.99,3.85-10.86,3.85s-5.99-6.34-5.99-6.34c0,0-3.37-4.75-6.75-7.47-3.37-2.72-18.36-10.86-20.6-12.45-2.25-1.58-4.87-2.49-6.37-3.39,0,0-7.87-5.54-9.18-6.34-1.31-.79-7.49-10.41-7.49-10.41,0,0-7.31-3.85-8.06-3.96-.75-.11-5.24-3.96-5.24-3.96,0,0-1.66-3.25-2.97-4.49-1.31-1.25-.93-2.82-2.61-4.06-1.69-1.25-5.04-4.96-5.04-4.96,0,0-7.18,12.5-10.92,15.78-3.75,3.28-8.99,6.11-11.24,8.94-2.25,2.83-6.75,7.81-7.31,8.49-.56.68-11.62,6.9-15.74,8.83-4.12,1.93-7.31,10.07-7.49,10.41-.19.34-6.74,8.49-8.05,9.5-1.31,1.02-5.44,2.15-7.49,2.83-2.06.68-30.72,14.6-30.72,14.6,0,0-8.61-4.53-10.3-5.77-1.69-1.24-3.56-1.36-6.74-1.36s-10.49-2.26-11.62-2.49c-1.12-.23-11.24-7.58-11.61-8.04-.37-.45-6.56-6.9-7.31-7.02-.75-.11-10.49-.56-11.24-.9-.75-.34-11.8-5.85-16.3-8.07-4.5-2.22-6.18-4.26-10.68-6.3-4.49-2.04-11.99-6.9-13.86-7.92-1.87-1.02-11.24-6.56-12.55-7.02-1.31-.45-7.87-3.05-9.18-2.15-1.31.91-12.74,9.5-16.3,10.98-3.56,1.47-10.49,3.39-13.3,4.87-2.81,1.47-5.24,2.04-8.8,4.19-3.56,2.15-8.43,5.43-12.74,7.47-4.31,2.04-9.18,3.62-12.18,4.53-3,.91-6.56,2.15-8.8,3.28-2.25,1.13-10.49,8.83-12.36,9.84-1.87,1.02-6,1.25-6.56,1.7-.56.45-3.93,3.28-3.93,3.28,0,0-8.05-4.08-11.24-6.56-3.18-2.49-4.68-4.87-7.68-6.79-3-1.92-7.87-3.96-10.49-3.96,0,0-3.19,1.24-5.81,2.49s-5.43,1.92-8.24,2.38c-2.81.45-15.74,4.19-21.92,6.11-6.18,1.93-13.3,4.19-16.49,6.11-3.18,1.92-3.75,2.38-8.62,4.3-4.87,1.92-11.8,9.05-11.8,9.05l-19.11,6.68-12.36,2.83-11.3,6.99c-3.07-.94-6.19-2.04-7.9-3.07-4.14-2.5-13.24-1-16.56-4.5-3.31-3.5-12.22-6.5-14.8-8-2.58-1.5-14.7,0-18.58,0s-12.29,11.82-19.67,17.41c-7.38,5.59-14.83,15.09-18.97,17.59s3.31-5.35-4.97-7.67c-8.28-2.33-18.68-6.83-23.41-6.33s-13.84,15.5-27.08,20.5-31.25,10-31.25,10h-22.67l-19.75-7.5-12.42-4-27.32,4-12.42-2v100.5h72.71l-.81.5h1252.53v-160.05s-17.05-10.02-22.67-12.74Z"/>
        <path class="cls-4" d="M1324.51,555.66v-4s-4.55,2.37-5.38,3.37-6.21,1-8.69,2.25-19.87,17.75-26.07,15.75c0,0-6.62-3-8.28-3.5s-11.17-3.5-16.97-5-21.11-5.5-24.01-6.75-15.31-9.75-15.73-12.5c-.41-2.75-8.69-6.5-9.93-7.5s-3.72,0-3.72,0c0,0-9.11,2.5-10.76,3.75s-16.14,7.5-17.8,8.5-2.55,3.93-4.63,4.89c-.02,0-.05.02-.07.03-.18.08-.37.17-.55.25-3.15,1.45-13.38,6.11-16.27,5.83-1.46-.14-11.86,3.76-22.69,8.01-4.35,1.69-16.16,6.18-20.08,6.32-4.6.17-6.62,1.83-11.86,1.83s-14.9,1.5-17.66,1.5-12.69,3.17-14.62,4-13.8-.5-16-1.67-35.87-5.67-37.8-6.33-4.97-.86-9.38.83c-4.42,1.69-11.31,2.17-12.97,2.17s-8.28-.5-10.21-.67c-1.93-.17-8.55-3.19-9.93-4-1.38-.81-4.97-3.67-5.79-3.5s-9.66.33-10.76.91-12.42,5.25-13.52,5.92-9.11.83-10.21,1.17c-1.1.33-3.03.5-5.24.67s-3.03.17-4.14,1.24-17.94,1.59-17.94,1.59c-2.07-.25-24.42-8.75-26.9-8.75s-12.42-2.75-16.14-2.25-11.59-.75-14.07-1.25-10.32-8.92-10.32-8.92h0c-.51-.9-.96-1.65-1.26-2.08-1.24-1.75-1.24-3.75-2.07-2.44s-11.59,2.19-16.97,2.69-7.45,2.5-9.52,3-6.21,4.25-8.28,6.11-10.76,3.14-13.66,3.64-12,1-12.91,1.75c-.91.75-9.44,7.75-10.68,8.25s-7.45,4.75-10.76,5.5-2.9.75-7.86,1.25-8.28,3.25-10.35,4-4.14,1.75-9.93,3.25c-5.79,1.5-35.77,21.22-35.78,21.23,0,0-8.09-1.23-9.33-1.48s-16.62-2.83-16.01-4.69-10.89-7.81-14.2-9.31c-3.31-1.5-35.18-10.75-41.39-13.75s-12.42-2.5-14.07-3-11.23-.4-14.9-2.5c-3.67-2.1-14.07-3.75-15.31-3.75s-7.86-2.5-12.83-5.25c-4.97-2.75-1.66-2.75-5.38-4.5s-14.49.5-15.73,2-6.21,4.25-7.86,5.5-6.62,2.25-10.76,4.16c-4.14,1.91-7.04.84-8.28,2.59s-5.38,6.75-7.04,7.83c-1.66,1.08-12,6.67-12,6.67,0,0-9.52,4-11.17,4.5s-5.38,5.25-6.62,6-6.67,6.48-9.11,7.99c-.49.31-1.43.75-2.6,1.27-6.47-.24-36.92,5.78-39.12,6.11s-11.04,3.33-13.24,3.33-10.49-1.33-10.49-1.33l-4.41-2.67s-14.09-.92-16.3-2.26l-9.44-2.19s-4.97-2.5-7.04-3.1c-2.07-.6-11.59-7.15-13.66-8.15s-5.38-10-5.38-10l-10.35-2.5s-12.83,8-14.49,8.25-14.49,2.75-15.73,3-8.69,5.5-10.76,8-17.38,5.75-18.21,6.5-7.86,2.5-12.42,3.25-9.11,3-10.35,4.5-6.62,4.5-7.86,6c-1.24,1.5-3.31,3.25-4.97,3.25-1.28,0-23.2,7.96-35.08,10.84l-11.59-.18c-1.83-.25-3.09-.16-3.83-.16-1.24,0-8.69-7.75-9.52-8.75s-4.55-4.5-6.21-5.75-8.69,2.5-9.93,2.5-13.66-6.25-14.9-7.5c-.75-.75-2.53-2.49-3.84-3.76-6.54-7.1-12.91-13.87-16.2-16.99-1.02-.96-2.12-2.08-3.27-3.31-.94-2.15-6.59-15.04-7.73-16.19-1.24-1.25-6.21-10.75-6.21-10.75,0,0-11.17,2.75-16.14,3.16s-7.04,5.84-7.86,6.59-4.97,6.25-5.04,8.61c-4.53,3.03-9.02,6.12-12.8,8.86-.02.01-.04.03-.06.04-3.11,2.26-5.73,4.28-7.45,5.82,0,0-.02.02-.03.03-1.68,1.43-8.96,4.64-10.61,4.79-1.66.15-8.69,5.85-9.93,7.35s-5.38,5.75-6.21,8-2.9,5.25-2.9,5.25l-10.76,5.75-10.19,9v5.87c-.1.08-.16.13-.16.13l.16,7.97v.03l-.16,134.94h1324.43v-242.81Z"/>
        <path class="cls-2" d="M.08,702.28s13.24,18,16.56,18,10.35,5.75,12.42,6,12.42,8.25,14.49,8.5,7.04,4.25,12,4.25h16.56s4.14-1.25,7.86,0,6.62,1.75,8.69,2.25,6.21,2.25,6.21,2.25h4.55s4.14-.75,5.38,0,4.55-.5,6.21,0,26.07,2.49,34.77.25c8.69-2.25,7.86-1,8.69-2.25s-6.21,2.5,0,0,7.86-3,10.76-3.75l2.9-.75c2.9-.75,3.31-1.5,4.97-2.5s2.48-.25,4.97-1.75,2.48-.75,5.79-2,5.72-.28,7.45-1.5c4.97-3.5,20.69-2.25,24.42-3s12,0,14.9-.5,9.11,0,11.17-.75-2.07-.21,7.86-1.48c9.93-1.27,8.28.98,16.56-1.77s10.35-3,12.83-3,5.79,3.5,9.52.5c3.72-3,7.04-2,9.11-3.75l2.07-1.75,7.45-2c3.31-.25,7.45-1.25,7.45-1.25,0,0,4.97-.5,6.21-.25s5.79,1.25,7.45,1.5,4.55,1.75,4.55,1.75l4.55,2.25,8.69,2.5s4.55,1.75,5.79,1.5,6.62,2,9.11,1.75,5.79-2.5,7.86-2.5,4.97.5,7.86.75,33.11,13,36.84,13.5,10.76.25,17.38.25,13.24,1.75,21.52-.25c8.28-2,13.66-1.75,18.62-2.75s9.93-1,13.24-1.25,12.83.25,16.14-.25,8.69-2.75,11.17-4,9.11-2.5,12.83-3.5,14.07-6.25,28.97-11.5c14.9-5.25,14.49-5.25,18.21-5.75s8.69,1,12.83,1,12,1.5,15.31,2.75,5.79,2,5.79,2c0,0,.83.75,3.72,1.25s-.41,1.25,2.9.5,64.15-2.75,65.81-2,6.62,1,9.11,1,3.31,1,11.17-1.25,10.35-1,14.9-2.25,1.24-.75,7.04-1.25,9.52.25,12-.5,4.97-.75,6.21-2-4.14.75,7.04-3.5c11.17-4.25,30.63-10.75,33.52-11.5s4.14-1.5,7.86-3,.41,0,3.72-1.5,5.38-2.5,7.86-2.5,10.35,1.5,11.59,2,3.72,1.5,6.21,3.5c2.48,2,6.21,4.5,7.86,5.25s5.38,3.25,6.62,3.25,10.76,3.25,12,3.5,8.69,4,8.69,4c0,0,6.62,11.75,27.73,13.75s24.42,3,30.63,2.75,8.28,1.5,17.38,0-9.52.25,15.73-1.5,27.32-1,30.63-1.25,4.97,1.5,8.69-.5,6.21-2,8.28-4.75c2.07-2.75,11.59-3.5,17.8-5.5s9.93-1.25,13.24-2.25,19.87-2.5,23.18-4.5,7.86-3,9.52-3.75,64.15.5,72.43,2,12,3.75,18.62,4,16.56,4.75,20.69,3,10.35-1.25,33.52-7.5,31.87-5.75,34.77-7.75,0-.25,11.59-7.75c11.59-7.5,16.56-8.75,21.11-7.75s11.17,3.5,12.42,3.25,20.69-3.6,21.94-3.55c1.24.05,14.49-6.2,14.49-6.2v-4l8.69-4.18v139.37H.08v-96.2Z"/>
      </g>
    </g>
  </g>
</svg>